<svg width="1200" height="760" viewBox="0 0 1200 760" fill="none" xmlns="http://www.w3.org/2000/svg">
  <defs>
    <linearGradient id="bg" x1="0" y1="0" x2="1200" y2="760" gradientUnits="userSpaceOnUse">
      <stop stop-color="#EFF6FF"/>
      <stop offset="1" stop-color="#F8FAFC"/>
    </linearGradient>
    <linearGradient id="steel" x1="205" y1="170" x2="995" y2="660" gradientUnits="userSpaceOnUse">
      <stop stop-color="#1E3A8A" stop-opacity="0.95"/>
      <stop offset="1" stop-color="#0F172A" stop-opacity="0.88"/>
    </linearGradient>
  </defs>

  <rect width="1200" height="760" rx="28" fill="url(#bg)"/>
  <rect x="34" y="34" width="1132" height="692" rx="24" fill="#FFFFFF" stroke="#DBEAFE" stroke-width="2"/>

  <circle cx="1048" cy="156" r="110" fill="#DBEAFE"/>
  <circle cx="196" cy="640" r="116" fill="#FEE2E2"/>

  <rect x="190" y="180" width="820" height="480" rx="28" fill="url(#steel)"/>
  <rect x="240" y="234" width="720" height="58" rx="12" fill="#3B82F6" fill-opacity="0.95"/>
  <rect x="240" y="320" width="320" height="280" rx="16" fill="#E2E8F0"/>
  <rect x="592" y="320" width="368" height="132" rx="16" fill="#F1F5F9"/>
  <rect x="592" y="468" width="368" height="132" rx="16" fill="#F8FAFC"/>

  <circle cx="400" cy="464" r="92" stroke="#0F172A" stroke-width="24"/>
  <circle cx="400" cy="464" r="42" stroke="#2563EB" stroke-width="18"/>
  <circle cx="400" cy="464" r="8" fill="#0F172A"/>

  <path d="M640 376H910" stroke="#1E293B" stroke-width="14" stroke-linecap="round"/>
  <path d="M640 414H860" stroke="#475569" stroke-width="11" stroke-linecap="round"/>
  <path d="M640 524H910" stroke="#1E293B" stroke-width="14" stroke-linecap="round"/>
  <path d="M640 562H880" stroke="#475569" stroke-width="11" stroke-linecap="round"/>

  <rect x="240" y="620" width="720" height="16" rx="8" fill="#1E40AF" fill-opacity="0.75"/>
</svg>
