<svg width="160" height="112" viewBox="0 0 160 112" fill="none" xmlns="http://www.w3.org/2000/svg">
  <rect x="1.5" y="1.5" width="157" height="109" rx="10" fill="#FFFFFF" stroke="#1F4FA3" stroke-width="3"/>
  <path d="M1.5 11.5C1.5 5.97715 5.97715 1.5 11.5 1.5H148.5C154.023 1.5 158.5 5.97715 158.5 11.5V17H1.5V11.5Z" fill="#1F4FA3"/>
  <path d="M1.5 95H158.5V100.5C158.5 106.023 154.023 110.5 148.5 110.5H11.5C5.97715 110.5 1.5 106.023 1.5 100.5V95Z" fill="#1F4FA3"/>

  <g>
    <rect x="13" y="24" width="62" height="64" rx="6" fill="#F7FAFF" stroke="#1F4FA3" stroke-width="2"/>
    <circle cx="44" cy="56" r="21" stroke="#1F4FA3" stroke-width="5"/>
    <circle cx="44" cy="56" r="8.5" stroke="#1F4FA3" stroke-width="4"/>
    <circle cx="44" cy="36" r="2.5" fill="#1F4FA3"/>
    <circle cx="44" cy="76" r="2.5" fill="#1F4FA3"/>
    <circle cx="24" cy="56" r="2.5" fill="#1F4FA3"/>
    <circle cx="64" cy="56" r="2.5" fill="#1F4FA3"/>
  </g>

  <g>
    <rect x="85" y="24" width="62" height="64" rx="6" fill="#F7FAFF" stroke="#1F4FA3" stroke-width="2"/>
    <circle cx="116" cy="56" r="21" stroke="#1F4FA3" stroke-width="5"/>
    <circle cx="116" cy="56" r="8.5" stroke="#1F4FA3" stroke-width="4"/>
    <circle cx="116" cy="36" r="2.5" fill="#1F4FA3"/>
    <circle cx="116" cy="76" r="2.5" fill="#1F4FA3"/>
    <circle cx="96" cy="56" r="2.5" fill="#1F4FA3"/>
    <circle cx="136" cy="56" r="2.5" fill="#1F4FA3"/>
  </g>

  <text x="80" y="106" text-anchor="middle" font-size="10" font-weight="700" fill="#FFFFFF" font-family="Arial, sans-serif">TAN HOA LOI</text>
</svg>
