<svg width="1200" height="630" viewBox="0 0 1200 630" fill="none" xmlns="http://www.w3.org/2000/svg">
  <defs>
    <linearGradient id="bg" x1="0" y1="0" x2="1200" y2="630" gradientUnits="userSpaceOnUse">
      <stop stop-color="#F8FAFC"/>
      <stop offset="1" stop-color="#EFF6FF"/>
    </linearGradient>
  </defs>
  <rect width="1200" height="630" fill="url(#bg)"/>
  <rect x="56" y="56" width="1088" height="518" rx="28" fill="#FFFFFF" stroke="#DBEAFE" stroke-width="2"/>

  <circle cx="1010" cy="150" r="94" fill="#DBEAFE"/>
  <circle cx="180" cy="498" r="102" fill="#FEE2E2"/>

  <rect x="112" y="102" width="112" height="112" rx="20" fill="#1D4ED8"/>
  <path d="M147 178V138H170C190 138 204 152 204 170V178H147Z" fill="#FFFFFF"/>

  <text x="252" y="166" fill="#0F172A" font-size="56" font-family="sans-serif" font-weight="700">Luan Phu Tung</text>
  <text x="252" y="216" fill="#1E3A8A" font-size="28" font-family="sans-serif" font-weight="500">Tra dung ma - tu van dung hang - ho tro nhanh</text>

  <rect x="112" y="274" width="976" height="224" rx="20" fill="#0F172A"/>
  <rect x="148" y="312" width="910" height="48" rx="10" fill="#3B82F6"/>
  <rect x="148" y="380" width="360" height="88" rx="12" fill="#E2E8F0"/>
  <rect x="532" y="380" width="526" height="88" rx="12" fill="#F1F5F9"/>
</svg>
