<svg width="1200" height="760" viewBox="0 0 1200 760" fill="none" xmlns="http://www.w3.org/2000/svg">
  <defs>
    <linearGradient id="bg" x1="0" y1="0" x2="1200" y2="760" gradientUnits="userSpaceOnUse">
      <stop stop-color="#FFF7ED"/>
      <stop offset="1" stop-color="#FFFBF5"/>
    </linearGradient>
    <linearGradient id="steel" x1="205" y1="170" x2="995" y2="660" gradientUnits="userSpaceOnUse">
      <stop stop-color="#92400E" stop-opacity="0.96"/>
      <stop offset="1" stop-color="#78350F" stop-opacity="0.9"/>
    </linearGradient>
  </defs>

  <rect width="1200" height="760" rx="28" fill="url(#bg)"/>
  <rect x="34" y="34" width="1132" height="692" rx="24" fill="#FFFFFF" stroke="#F3E2CF" stroke-width="2"/>

  <circle cx="1048" cy="156" r="110" fill="#FDE9D2"/>
  <circle cx="196" cy="640" r="116" fill="#FAE3CE"/>

  <rect x="190" y="180" width="820" height="480" rx="28" fill="url(#steel)"/>
  <rect x="240" y="234" width="720" height="58" rx="12" fill="#D97706" fill-opacity="0.95"/>
  <rect x="240" y="320" width="320" height="280" rx="16" fill="#F3E8D9"/>
  <rect x="592" y="320" width="368" height="132" rx="16" fill="#FBF5EC"/>
  <rect x="592" y="468" width="368" height="132" rx="16" fill="#FFFCF8"/>

  <circle cx="400" cy="464" r="92" stroke="#3F2416" stroke-width="24"/>
  <circle cx="400" cy="464" r="42" stroke="#B45309" stroke-width="18"/>
  <circle cx="400" cy="464" r="8" fill="#3F2416"/>

  <path d="M640 376H910" stroke="#4A2E1F" stroke-width="14" stroke-linecap="round"/>
  <path d="M640 414H860" stroke="#6B4A38" stroke-width="11" stroke-linecap="round"/>
  <path d="M640 524H910" stroke="#4A2E1F" stroke-width="14" stroke-linecap="round"/>
  <path d="M640 562H880" stroke="#6B4A38" stroke-width="11" stroke-linecap="round"/>

  <rect x="240" y="620" width="720" height="16" rx="8" fill="#7C2D12" fill-opacity="0.78"/>
</svg>
